<?xml version="1.0" encoding="utf-8"?>
<!-- Generator: Adobe Illustrator 21.0.0, SVG Export Plug-In . SVG Version: 6.00 Build 0)  -->
<svg version="1.1" id="图层_8" xmlns="http://www.w3.org/2000/svg" xmlns:xlink="http://www.w3.org/1999/xlink" x="0px" y="0px"
	 width="192px" height="192px" viewBox="0 0 192 192" style="enable-background:new 0 0 192 192;" xml:space="preserve">
<style type="text/css">
	.st0{fill:#486DF1;}
</style>
<g>
	<path class="st0" d="M140.8,17.6c-7.7-5-17.8-5.1-28.5-0.3l-58.4,26l-0.2,0.1c-0.2,0.1-0.4,0.2-0.5,0.2
		c-6.1,2.8-13.1,7.3-13.1,17.3v94.8c0,7.4,4.6,13.3,13.6,17.4c0,0,0,0,0,0c0.1,0,0.2,0.1,0.2,0.1l7,3.1c3,1.3,6,2,8.8,2
		c3.1,0,5.9-0.8,8.3-2.3c3.4-2.2,7.4-6.8,7.4-16.7v-20.8l32.1-14.1c30.2-13.2,34.4-31.7,34.4-49.7v-34
		C151.9,30.4,148,22.2,140.8,17.6z M72.5,159.2c0,3.8-0.9,5.5-1.5,5.8c-0.7,0.5-2.6,0.4-4.8-0.6l-6.9-3.1c0,0,0,0-0.1,0
		c-0.1,0-0.1-0.1-0.2-0.1c-6.1-2.7-6.1-4.8-6.1-5.6V78c0,0,0.1,0,0.1,0.1c0.1,0,0.1,0.1,0.2,0.1c0.2,0.1,0.4,0.2,0.6,0.3l11.4,5.1
		c0.1,0.1,0.2,0.1,0.4,0.2c5.6,2.5,6.8,4.6,6.8,11.3V159.2z M139,74.6c0,16.6-4.4,28.1-26.7,37.9l-27,11.8V94.9
		c0-11.8-4.2-18.5-14.6-23.1c-0.1,0-0.1-0.1-0.2-0.1l-11.4-5.1c-0.2-0.1-0.5-0.2-0.7-0.3C53,63.7,53,62.7,53,60.9c0-1.5,0-3,5.7-5.6
		L117.6,29c3.5-1.6,6.9-2.4,9.8-2.4c2.5,0,4.7,0.6,6.4,1.7c3.3,2.2,5.2,6.5,5.2,12.2V74.6z"/>
</g>
</svg>
